<svg width="86" height="32" viewBox="0 0 86 32" fill="none" xmlns="http://www.w3.org/2000/svg">
<path d="M36.0887 27.4021C35.5553 27.1701 35.3219 26.6069 35.4886 26.143L38.2559 18.8866C38.3892 18.5553 38.8227 18.3896 39.1894 18.5553L40.5564 19.1517C40.9231 19.3173 41.0898 19.715 40.9231 20.0463L37.389 26.9713C37.189 27.4352 36.6222 27.634 36.0887 27.4021Z" fill="#E71882"/>
<path d="M43.0569 12.6574L42.8236 12.5248C41.6233 11.9284 39.5895 12.558 38.9227 14.1153L38.8894 14.1815C38.5559 15.043 38.5893 15.9377 38.9227 16.7329C39.0227 16.9317 39.1561 17.0974 39.3561 17.1636L42.0234 18.3896C42.2234 18.489 42.4235 18.489 42.6235 18.4227C43.3903 18.1576 44.0572 17.5612 44.3906 16.6997L44.4239 16.6335C45.0907 15.0762 44.5573 13.3532 43.0569 12.6574Z" fill="#E71882"/>
<path d="M41.4566 19.2511L38.6893 18.0251C38.5893 17.992 38.5559 17.8594 38.5893 17.76L38.7226 17.4618C38.756 17.3624 38.8893 17.3293 38.9894 17.3624L41.7566 18.5884C41.8567 18.6215 41.89 18.7541 41.8567 18.8535L41.7233 19.1517C41.6899 19.2511 41.5566 19.2842 41.4566 19.2511Z" fill="#E71882"/>
<path d="M4.81477 31.5434C2.68097 31.5434 1.18064 30.1187 1.01393 28.6608C0.88057 27.4348 1.68075 25.8444 4.44802 25.4799C5.18152 25.3805 5.88167 25.4467 6.58183 25.513C6.74853 25.513 6.91523 25.5461 7.08194 25.5461C8.68229 25.6787 10.6161 26.01 12.7499 26.4739C13.8834 25.4136 14.8837 24.1876 15.8839 22.9285C16.8508 21.7026 18.0177 20.1121 19.3513 18.2898C22.352 14.148 25.9194 8.81339 29.7536 5.43371C31.1873 4.17461 32.5542 3.08118 34.1212 2.3191C37.5887 0.596121 39.0223 1.45761 39.5891 2.48477C40.0225 3.24685 39.9892 4.24088 39.4557 5.00296C37.8887 7.25609 33.5211 10.5695 31.7207 11.8949C31.3206 12.1931 30.8205 12.2262 30.3537 12.0274C29.9203 11.8286 29.6202 11.3979 29.6202 10.9008C29.5869 10.4038 29.7203 9.93995 29.7203 9.90682C29.8203 9.54235 30.2204 9.31041 30.5871 9.40981C30.9539 9.50921 31.1873 9.90682 31.0872 10.2713C31.0872 10.2713 31.0539 10.437 31.0205 10.6358C32.5542 9.50921 36.8218 6.2952 38.2221 4.24088C38.4555 3.90954 38.4555 3.51193 38.2888 3.21372C37.8887 2.5179 36.5884 2.68357 34.688 3.61133C33.2544 4.30715 31.9207 5.30117 30.6871 6.494C27.1197 9.90682 23.4522 15.0095 20.4849 19.085C19.1513 20.9405 17.9843 22.5641 16.9841 23.79C16.1173 24.8503 15.2837 25.8775 14.3502 26.8384C15.4504 27.1035 16.5507 27.3685 17.7176 27.6336C24.4524 29.224 32.8209 31.2121 34.7547 29.1578C35.0214 28.8596 35.4882 28.8596 35.7549 29.1246C36.055 29.3897 36.055 29.8536 35.7883 30.1187C33.2877 32.8025 25.5527 30.947 17.3509 29.0252C15.8839 28.6939 14.4502 28.3294 13.0833 28.0312C12.2497 28.7602 11.3495 29.4228 10.316 29.953C8.51559 30.9139 6.84855 31.444 5.28154 31.5103C5.18152 31.5103 4.98147 31.5434 4.81477 31.5434ZM5.2482 26.8384C5.04816 26.8384 4.81477 26.8384 4.61473 26.8715C3.14774 27.0703 2.34756 27.6667 2.44758 28.4951C2.5476 29.2903 3.54783 30.2843 5.21486 30.1187H5.2482C6.58183 30.0524 8.08216 29.5554 9.71585 28.6939C10.2826 28.3957 10.8494 28.0312 11.3829 27.6336C9.71585 27.3023 8.21552 27.0372 6.98192 26.9378C6.81521 26.9378 6.64851 26.9046 6.48181 26.9046C6.01504 26.8715 5.64829 26.8384 5.2482 26.8384Z" fill="#E71882"/>
<path d="M57.6599 31.7422C57.5265 31.7422 57.4265 31.7422 57.2931 31.7422C56.1595 31.676 55.126 31.2784 54.3925 30.5825C53.4589 29.7211 53.4256 28.8596 53.5256 28.2632C53.7923 26.9047 55.326 25.6456 56.8597 24.7178C56.3262 24.4527 55.9261 24.022 55.6928 23.3924C55.426 22.7297 55.4927 22.0339 55.8595 21.3381C56.9264 19.3169 60.4938 17.7265 62.6943 17.2626C63.7279 17.0307 64.8614 16.8981 65.2282 17.6602C65.6616 18.4554 64.6947 19.4826 64.0613 20.0459C63.7945 20.2778 63.3945 20.2447 63.1611 19.9796C62.9277 19.7145 62.961 19.3169 63.2277 19.085C63.4945 18.8531 63.7612 18.5548 63.9279 18.3229C63.7279 18.3229 63.4278 18.356 62.961 18.4554C60.9939 18.8862 57.8266 20.3441 56.993 21.9014C56.793 22.2659 56.7597 22.5972 56.893 22.9286C57.0264 23.293 57.1931 23.4918 57.4931 23.5912C57.9933 23.79 58.7268 23.6244 59.2935 23.4256C59.727 23.2268 60.0604 23.0942 60.1937 23.0611C60.4938 22.9286 60.8606 23.0942 60.9939 23.3924C61.1273 23.6906 61.0273 24.0551 60.7272 24.2208C60.6272 24.2539 60.2604 24.4859 59.727 24.6515C57.6599 25.5793 55.0593 27.1697 54.7926 28.4951C54.7592 28.7602 54.7259 29.1578 55.2927 29.6548C55.8261 30.1518 56.5596 30.45 57.3931 30.4831C61.4607 30.6819 64.7281 26.9047 64.7614 26.8715C64.9948 26.6064 65.3282 26.507 65.5949 26.739C65.8617 26.9709 65.8617 27.4017 65.6616 27.6667C65.4616 27.7993 62.1608 31.7422 57.6599 31.7422Z" fill="#E71882"/>
<path d="M36.9219 31.7754C36.3551 31.7754 35.9217 31.6097 35.5883 31.3115C34.1213 30.0193 35.5883 26.7721 35.9217 26.1094L37.0553 26.6396C36.4551 27.8987 35.8884 29.8867 36.4218 30.3506C36.5885 30.5163 37.7221 31.0795 42.6899 27.8324L43.39 28.8927C40.4227 30.8476 38.3222 31.7754 36.9219 31.7754Z" fill="#E71882"/>
<path d="M43.3234 31.5766C42.9566 31.5766 42.6232 31.4109 42.4232 31.1127C42.0564 30.5163 41.723 29.4229 43.8902 24.7178C44.557 23.2599 45.2905 21.802 45.9573 20.576C45.9906 20.5098 45.924 20.4766 45.8573 20.5098L43.7902 22.1665C43.5234 22.3984 43.1233 22.3321 42.89 22.0671C42.6566 21.802 42.7233 21.4044 42.99 21.1724L47.2242 17.7928C47.491 17.5608 47.8911 17.5608 48.1578 17.7928C48.4245 18.0247 48.4912 18.3892 48.3245 18.7205C45.4238 24.022 43.7568 27.7993 43.29 29.5885C43.19 30.0193 43.6234 30.3506 44.0235 30.1849C46.8908 28.9258 52.9255 23.9557 54.9593 18.588C55.5261 17.0307 55.3594 16.5668 55.2927 16.5005C54.9593 16.5005 54.6926 16.2686 54.6592 15.9372C54.6259 15.6059 54.8593 15.2746 55.226 15.2414C55.5261 15.2083 55.9595 15.3077 56.2929 15.7053C56.793 16.3349 56.7263 17.3951 56.1595 19.0187C53.7257 25.4799 46.1573 31.3778 43.3901 31.6097C43.4234 31.5766 43.3901 31.5766 43.3234 31.5766Z" fill="#E71882"/>
<path d="M4.81477 31.5434C2.68097 31.5434 1.18064 30.1187 1.01393 28.6608C0.88057 27.4348 1.68075 25.8444 4.44802 25.4799C5.18152 25.3805 5.88167 25.4467 6.58183 25.513C6.74853 25.513 6.91523 25.5461 7.08194 25.5461C8.68229 25.6787 10.6161 26.01 12.7499 26.4739C13.8834 25.4136 14.8837 24.1876 15.8839 22.9285C16.8508 21.7026 18.0177 20.1121 19.3513 18.2898C22.352 14.148 25.9194 8.81339 29.7536 5.43371C31.1873 4.17461 32.5542 3.08118 34.1212 2.3191C37.5887 0.596121 39.0223 1.45761 39.5891 2.48477C40.0225 3.24685 39.9892 4.24088 39.4557 5.00296C37.8887 7.25609 33.5211 10.5695 31.7207 11.8949C31.3206 12.1931 30.8205 12.2262 30.3537 12.0274C29.9203 11.8286 29.6202 11.3979 29.6202 10.9008C29.5869 10.4038 29.7203 9.93995 29.7203 9.90682C29.8203 9.54235 30.2204 9.31041 30.5871 9.40981C30.9539 9.50921 31.1873 9.90682 31.0872 10.2713C31.0872 10.2713 31.0539 10.437 31.0205 10.6358C32.5542 9.50921 36.8218 6.2952 38.2221 4.24088C38.4555 3.90954 38.4555 3.51193 38.2888 3.21372C37.8887 2.5179 36.5884 2.68357 34.688 3.61133C33.2544 4.30715 31.9207 5.30117 30.6871 6.494C27.1197 9.90682 23.4522 15.0095 20.4849 19.085C19.1513 20.9405 17.9843 22.5641 16.9841 23.79C16.1173 24.8503 15.2837 25.8775 14.3502 26.8384C15.4504 27.1035 16.5507 27.3685 17.7176 27.6336C24.4524 29.224 32.8209 31.2121 34.7547 29.1578C35.0214 28.8596 35.4882 28.8596 35.7549 29.1246C36.055 29.3897 36.055 29.8536 35.7883 30.1187C33.2877 32.8025 25.5527 30.947 17.3509 29.0252C15.8839 28.6939 14.4502 28.3294 13.0833 28.0312C12.2497 28.7602 11.3495 29.4228 10.316 29.953C8.51559 30.9139 6.84855 31.444 5.28154 31.5103C5.18152 31.5103 4.98147 31.5434 4.81477 31.5434ZM5.2482 26.8384C5.04816 26.8384 4.81477 26.8384 4.61473 26.8715C3.14774 27.0703 2.34756 27.6667 2.44758 28.4951C2.5476 29.2903 3.54783 30.2843 5.21486 30.1187H5.2482C6.58183 30.0524 8.08216 29.5554 9.71585 28.6939C10.2826 28.3957 10.8494 28.0312 11.3829 27.6336C9.71585 27.3023 8.21552 27.0372 6.98192 26.9378C6.81521 26.9378 6.64851 26.9046 6.48181 26.9046C6.01504 26.8715 5.64829 26.8384 5.2482 26.8384Z" stroke="#E71882" stroke-width="0.25" stroke-miterlimit="10"/>
<path d="M57.6599 31.7422C57.5265 31.7422 57.4265 31.7422 57.2931 31.7422C56.1595 31.676 55.126 31.2784 54.3925 30.5825C53.4589 29.7211 53.4256 28.8596 53.5256 28.2632C53.7923 26.9047 55.326 25.6456 56.8597 24.7178C56.3262 24.4527 55.9261 24.022 55.6928 23.3924C55.426 22.7297 55.4927 22.0339 55.8595 21.3381C56.9264 19.3169 60.4938 17.7265 62.6943 17.2626C63.7279 17.0307 64.8614 16.8981 65.2282 17.6602C65.6616 18.4554 64.6947 19.4826 64.0613 20.0459C63.7945 20.2778 63.3945 20.2447 63.1611 19.9796C62.9277 19.7145 62.961 19.3169 63.2277 19.085C63.4945 18.8531 63.7612 18.5548 63.9279 18.3229C63.7279 18.3229 63.4278 18.356 62.961 18.4554C60.9939 18.8862 57.8266 20.3441 56.993 21.9014C56.793 22.2659 56.7597 22.5972 56.893 22.9286C57.0264 23.293 57.1931 23.4918 57.4931 23.5912C57.9933 23.79 58.7268 23.6244 59.2935 23.4256C59.727 23.2268 60.0604 23.0942 60.1937 23.0611C60.4938 22.9286 60.8606 23.0942 60.9939 23.3924C61.1273 23.6906 61.0273 24.0551 60.7272 24.2208C60.6272 24.2539 60.2604 24.4859 59.727 24.6515C57.6599 25.5793 55.0593 27.1697 54.7926 28.4951C54.7592 28.7602 54.7259 29.1578 55.2927 29.6548C55.8261 30.1518 56.5596 30.45 57.3931 30.4831C61.4607 30.6819 64.7281 26.9047 64.7614 26.8715C64.9948 26.6064 65.3282 26.507 65.5949 26.739C65.8617 26.9709 65.8617 27.4017 65.6616 27.6667C65.4616 27.7993 62.1608 31.7422 57.6599 31.7422Z" stroke="#E71882" stroke-width="0.25" stroke-miterlimit="10"/>
<path d="M36.9219 31.7754C36.3551 31.7754 35.9217 31.6097 35.5883 31.3115C34.1213 30.0193 35.5883 26.7721 35.9217 26.1094L37.0553 26.6396C36.4551 27.8987 35.8884 29.8867 36.4218 30.3506C36.5885 30.5163 37.7221 31.0795 42.6899 27.8324L43.39 28.8927C40.4227 30.8476 38.3222 31.7754 36.9219 31.7754Z" stroke="#E71882" stroke-width="0.25" stroke-miterlimit="10"/>
<path d="M43.3234 31.5766C42.9566 31.5766 42.6232 31.4109 42.4232 31.1127C42.0564 30.5163 41.723 29.4229 43.8902 24.7178C44.557 23.2599 45.2905 21.802 45.9573 20.576C45.9906 20.5098 45.924 20.4766 45.8573 20.5098L43.7902 22.1665C43.5234 22.3984 43.1233 22.3321 42.89 22.0671C42.6566 21.802 42.7233 21.4044 42.99 21.1724L47.2242 17.7928C47.491 17.5608 47.8911 17.5608 48.1578 17.7928C48.4245 18.0247 48.4912 18.3892 48.3245 18.7205C45.4238 24.022 43.7568 27.7993 43.29 29.5885C43.19 30.0193 43.6234 30.3506 44.0235 30.1849C46.8908 28.9258 52.9255 23.9557 54.9593 18.588C55.5261 17.0307 55.3594 16.5668 55.2927 16.5005C54.9593 16.5005 54.6926 16.2686 54.6592 15.9372C54.6259 15.6059 54.8593 15.2746 55.226 15.2414C55.5261 15.2083 55.9595 15.3077 56.2929 15.7053C56.793 16.3349 56.7263 17.3951 56.1595 19.0187C53.7257 25.4799 46.1573 31.3778 43.3901 31.6097C43.4234 31.5766 43.3901 31.5766 43.3234 31.5766Z" stroke="#E71882" stroke-width="0.25" stroke-miterlimit="10"/>
<path d="M43.7247 16.6336C43.658 16.6005 43.6247 16.5342 43.658 16.4679C44.4582 14.1154 42.5911 13.3865 42.5244 13.3533C42.4577 13.3202 42.4244 13.2539 42.4577 13.1877C42.4911 13.1214 42.5578 13.0883 42.6244 13.1214C42.6578 13.1214 44.7916 13.9829 43.9247 16.5674C43.858 16.6336 43.7914 16.6668 43.7247 16.6336Z" fill="white"/>
<path d="M39.557 20.6097L39.8238 19.9802C39.8904 19.8145 39.8238 19.6488 39.6571 19.5826C39.4903 19.5163 39.3236 19.5826 39.257 19.7482L38.9902 20.3778L39.557 20.6097Z" fill="white"/>
<path d="M66.5957 30.7817L67.3292 30.3841C67.3959 30.5829 67.4959 30.7154 67.6293 30.8148C67.7626 30.9142 67.9627 30.9805 68.1961 30.9805C68.3961 30.9805 68.5628 30.9473 68.6628 30.8479C68.7628 30.7485 68.8295 30.616 68.8295 30.4835C68.8295 30.2847 68.6295 30.0859 68.2294 29.9533C68.096 29.9202 67.996 29.8539 67.896 29.8208C67.4626 29.6551 67.1958 29.4563 67.0291 29.2906C66.8624 29.125 66.7624 28.893 66.7624 28.6279C66.7624 28.2635 66.8958 27.9984 67.1625 27.7665C67.4292 27.5345 67.796 27.4351 68.2627 27.4351C68.5628 27.4351 68.8295 27.5014 69.0296 27.6008C69.263 27.7002 69.3963 27.8659 69.4963 28.0647L68.8629 28.4954C68.8295 28.3629 68.7295 28.2635 68.6295 28.1972C68.4961 28.1309 68.3628 28.0978 68.2294 28.0978C68.0627 28.0978 67.9293 28.1309 67.8293 28.2303C67.7293 28.2966 67.6626 28.4291 67.6626 28.5617C67.6626 28.7605 67.896 28.9593 68.3628 29.125C68.4961 29.1912 68.6295 29.2244 68.6962 29.2575C69.0629 29.39 69.3296 29.5557 69.463 29.7545C69.6297 29.9202 69.6964 30.1521 69.6964 30.4172C69.6964 30.8148 69.563 31.113 69.263 31.345C68.9629 31.5769 68.5961 31.6763 68.096 31.6763C67.6959 31.6763 67.3959 31.61 67.1292 31.4775C66.9291 31.2787 66.7291 31.0799 66.5957 30.7817Z" fill="#B8B7D0"/>
<path d="M70.4966 31.4775V25.1157H71.3301V28.2303C71.4968 27.9653 71.7302 27.7665 71.9635 27.6339C72.1969 27.5014 72.497 27.4351 72.8637 27.4351C73.1638 27.4351 73.3972 27.4682 73.5972 27.5677C73.7973 27.6671 73.964 27.7996 74.064 27.9653C74.1307 28.0647 74.1974 28.1972 74.1974 28.3297C74.2307 28.4623 74.2307 28.7273 74.2307 29.0918V31.4775H73.3305V29.4894C73.3305 28.9593 73.2638 28.6279 73.1305 28.4623C72.9971 28.2966 72.7971 28.1972 72.4637 28.1972C72.2636 28.1972 72.0636 28.2303 71.8969 28.2966C71.7302 28.3629 71.5968 28.4954 71.4968 28.6279C71.4301 28.7273 71.3968 28.8268 71.3634 28.9924C71.3301 29.125 71.3301 29.39 71.3301 29.6882V31.4775H70.4966Z" fill="#B8B7D0"/>
<path d="M75.0309 29.5557C75.0309 29.2575 75.0976 28.9924 75.1976 28.7605C75.2976 28.4954 75.4643 28.2966 75.6644 28.0978C75.8644 27.899 76.0978 27.7665 76.3645 27.6339C76.6313 27.5345 76.898 27.4683 77.1981 27.4683C77.4981 27.4683 77.7648 27.5345 78.0316 27.6339C78.2983 27.7333 78.5317 27.899 78.7317 28.0978C78.9318 28.2966 79.0985 28.5285 79.1985 28.7936C79.2985 29.0587 79.3652 29.3238 79.3652 29.5888C79.3652 29.887 79.2985 30.1521 79.1985 30.4172C79.0985 30.6823 78.9318 30.8811 78.7317 31.0799C78.5317 31.2787 78.265 31.4443 77.9982 31.5438C77.7315 31.6432 77.4648 31.7094 77.1647 31.7094C76.8646 31.7094 76.5979 31.6432 76.3312 31.5438C76.0645 31.4443 75.8311 31.2787 75.631 31.0799C75.431 30.8811 75.2643 30.6491 75.1643 30.3841C75.0976 30.0858 75.0309 29.8208 75.0309 29.5557ZM78.4317 29.5557C78.4317 29.1912 78.2983 28.893 78.0649 28.6279C77.8315 28.3629 77.5315 28.2635 77.1981 28.2635C76.8647 28.2635 76.5646 28.396 76.3312 28.6279C76.0978 28.8599 75.9645 29.1912 75.9645 29.5557C75.9645 29.9202 76.0978 30.2184 76.3312 30.4835C76.5646 30.7485 76.8647 30.8479 77.1981 30.8479C77.5315 30.8479 77.8315 30.7154 78.0649 30.4835C78.2983 30.2515 78.4317 29.9202 78.4317 29.5557Z" fill="#B8B7D0"/>
<path d="M83.8995 31.7426L82.9993 29.7214C82.9326 29.5557 82.866 29.4232 82.8326 29.2906C82.7993 29.1581 82.7326 29.0587 82.6993 28.9262C82.6326 29.0918 82.5992 29.2575 82.5325 29.39C82.4992 29.5226 82.4325 29.622 82.4325 29.6882L81.499 31.7426L79.4652 27.6008H80.4321L81.3323 29.4894C81.3656 29.5557 81.399 29.6882 81.4323 29.8208C81.4656 29.9533 81.499 30.119 81.5323 30.2847C81.5323 30.1853 81.5657 30.0859 81.5657 29.9864C81.599 29.887 81.6324 29.7545 81.7324 29.5888L82.6993 27.4683H82.7659L83.7328 29.5888C83.7995 29.7214 83.8328 29.8539 83.8662 29.9533C83.8995 30.0527 83.8995 30.1853 83.9329 30.2847C83.9662 30.1521 83.9995 29.9864 84.0329 29.8539C84.0662 29.7214 84.0996 29.5888 84.1662 29.4894L85.0331 27.6008H86L83.8995 31.7426Z" fill="#B8B7D0"/>
<path d="M5.4819 1.4579V9.74145H3.91489V1.4579H1.34766V0.132537H8.01579V1.4579H5.4819Z" fill="#20ADE4"/>
<path d="M20.7855 9.7083H19.3185V0.0993972H21.6857C22.3858 0.0993972 22.9193 0.132531 23.2527 0.1988C23.5861 0.265068 23.8862 0.397605 24.1196 0.563276C24.4196 0.795215 24.653 1.09342 24.8197 1.4579C25.0198 1.88864 25.0864 2.31939 25.0864 2.75013C25.0864 3.18087 25.0198 3.64475 24.853 4.00923C24.6863 4.40684 24.453 4.70505 24.1529 4.90385C23.9195 5.06952 23.6194 5.20206 23.286 5.26833C22.9526 5.33459 22.4192 5.36773 21.719 5.36773H20.7855V9.7083ZM20.8855 4.14177H21.2856C22.1525 4.14177 22.7526 4.04236 23.0193 3.84356C23.3194 3.64475 23.4527 3.31341 23.4527 2.84953C23.4527 2.35252 23.286 1.98804 22.986 1.75611C22.6859 1.52417 22.1191 1.42476 21.2856 1.42476H20.8855V4.14177Z" fill="#20ADE4"/>
<path d="M11.8832 0.16567C10.5162 0.56328 9.41599 1.52417 8.81586 2.8164C8.74917 2.94894 8.8492 3.11461 8.98256 3.11461H13.4502C13.6169 3.11461 13.6836 2.94894 13.6169 2.8164L12.0832 0.265072C12.0499 0.198804 11.9499 0.16567 11.8832 0.16567Z" fill="#20ADE4"/>
<path d="M16.9844 1.92178C16.8844 1.78924 16.7177 1.82237 16.651 1.95491L15.2173 4.90385V4.93699L14.5838 6.09668C14.5172 6.22922 14.6172 6.39489 14.7506 6.39489H17.6512C17.7512 6.39489 17.8179 6.32862 17.8512 6.26235C17.9846 5.83161 18.0179 5.40086 18.0179 4.93699C17.9846 3.84356 17.6179 2.78326 16.9844 1.92178Z" fill="#20ADE4"/>
<path d="M14.6505 9.6089C15.9175 9.17816 16.951 8.2504 17.5178 7.02444C17.5845 6.8919 17.4845 6.72623 17.3511 6.72623H12.9168C12.7501 6.72623 12.6501 6.8919 12.7501 7.05757L14.4171 9.54263C14.4838 9.6089 14.5838 9.64204 14.6505 9.6089Z" fill="#20ADE4"/>
<path d="M14.1838 3.11461L14.8172 4.24117C14.8839 4.37371 15.084 4.37371 15.1506 4.24117L16.4509 1.55731C16.4843 1.49104 16.4843 1.39163 16.4176 1.32537C15.5174 0.463878 14.3838 0 13.1502 0C12.9835 0 12.8168 0 12.6501 0.0331342C12.5167 0.0331342 12.4167 0.198805 12.5167 0.331342L14.1838 3.11461Z" fill="#20ADE4"/>
<path d="M11.1164 4.93699L11.7832 3.77729C11.8499 3.64476 11.7499 3.47909 11.6165 3.47909H8.71585C8.61583 3.47909 8.54915 3.54536 8.5158 3.61162C8.38244 4.04237 8.3491 4.47311 8.3491 4.93699C8.3491 5.96415 8.64917 6.95817 9.2493 7.78653C9.34932 7.91907 9.51603 7.88593 9.58271 7.75339L11.1164 4.93699Z" fill="#20ADE4"/>
<path d="M12.1166 6.72623L11.4832 5.59967C11.4165 5.46714 11.2164 5.46714 11.1497 5.59967L9.74944 8.18414C9.7161 8.25041 9.7161 8.34981 9.78278 8.41608C10.683 9.34383 11.9166 9.84085 13.1835 9.84085C13.4169 9.84085 13.6503 9.80771 13.8837 9.77458C14.017 9.74144 14.0837 9.57577 14.017 9.47637L12.1166 6.72623Z" fill="#20ADE4"/>
</svg>
